<?xml version="1.0" encoding="utf-8"?>
<!-- Generator: Adobe Illustrator 23.1.0, SVG Export Plug-In . SVG Version: 6.00 Build 0)  -->
<svg version="1.1" id="图层_1" xmlns="http://www.w3.org/2000/svg" xmlns:xlink="http://www.w3.org/1999/xlink" x="0px" y="0px"
	 viewBox="0 0 1920 421" style="enable-background:new 0 0 1920 421;" xml:space="preserve">
<style type="text/css">
	.st0{fill:#FFFFFF;}
</style>
<path class="st0" d="M1913,14.5l-13.4,5.3l-12.9,14.6l-9.6,5.2V24l7.7,6.4c0.3,0.2,0.6,0.3,0.9,0.3c0.4,0,0.8-0.2,1.1-0.5
	c0.5-0.6,0.4-1.5-0.2-2l-9.6-7.9v-5.5l7.7,6.4c0.3,0.2,0.6,0.3,0.9,0.3c0.4,0,0.8-0.2,1.1-0.5c0.5-0.6,0.4-1.5-0.2-1.9l-9.6-7.9V4.9
	l7.7,6.4c0.3,0.2,0.6,0.3,0.9,0.3c0.4,0,0.8-0.2,1.1-0.5c0.5-0.6,0.4-1.5-0.2-2l-11-9.1l-10.9,9c-0.6,0.5-0.7,1.4-0.2,1.9
	c0.5,0.6,1.4,0.7,2,0.2l7.7-6.4V11l-9.5,7.9c-0.6,0.5-0.7,1.4-0.2,1.9c0.5,0.6,1.4,0.7,2,0.2l7.7-6.4v5.5l-9.5,7.9
	c-0.6,0.5-0.7,1.4-0.2,1.9c0.5,0.6,1.4,0.7,2,0.2l7.7-6.4v17.1l-29.5,15.8L1832,75.4l-7.6,4V65.7l6.6,5.5c0.3,0.2,0.6,0.3,0.9,0.3
	c0.4,0,0.8-0.2,1.1-0.5c0.5-0.6,0.4-1.5-0.2-2l-8.4-7v-4.4l6.6,5.5c0.3,0.2,0.6,0.3,0.9,0.3c0.4,0,0.8-0.2,1.1-0.5
	c0.5-0.6,0.4-1.5-0.2-1.9l-9.8-8.1l-9.8,8.1c-0.6,0.5-0.7,1.4-0.2,1.9s1.4,0.7,2,0.2l6.5-5.4v5.2l-8.4,6.9c-0.6,0.5-0.7,1.4-0.2,1.9
	c0.5,0.6,1.4,0.7,2,0.2l6.5-5.4v15.1h-0.1v0.1l-40.3,21.2l-31.9-1l-41.2,9.1l-22-14.5l-21.7-1.2l-7.7-19.8l-20.7-1.3l-70.2,63.4
	l-23.8,13.2v-14.5l7.7,6.4c0.3,0.2,0.6,0.3,0.9,0.3c0.4,0,0.8-0.2,1.1-0.5c0.5-0.6,0.4-1.5-0.2-2l-9.6-7.9v-5.5l7.7,6.4
	c0.3,0.2,0.6,0.3,0.9,0.3c0.4,0,0.8-0.2,1.1-0.5c0.5-0.6,0.4-1.5-0.2-1.9l-9.6-7.9v-6.3l7.7,6.4c0.3,0.2,0.6,0.3,0.9,0.3
	c0.4,0,0.8-0.2,1.1-0.5c0.5-0.6,0.4-1.5-0.2-2l-11-9.1l-10.9,9c-0.6,0.5-0.7,1.4-0.2,1.9c0.5,0.6,1.4,0.7,2,0.2l7.7-6.4v6.3
	l-9.5,7.9c-0.6,0.5-0.7,1.4-0.2,1.9c0.5,0.6,1.4,0.7,2,0.2l7.7-6.4v5.5l-9.5,7.9c-0.6,0.5-0.7,1.4-0.2,2c0.5,0.6,1.4,0.7,2,0.2
	l7.7-6.4v16l-19.2,10.7l-3.4-0.3V150l6.6,5.5c0.3,0.2,0.6,0.3,0.9,0.3c0.4,0,0.8-0.2,1.1-0.5c0.5-0.6,0.4-1.5-0.2-1.9l-8.4-7v-5.2
	l6.6,5.5c0.3,0.2,0.6,0.3,0.9,0.3c0.4,0,0.8-0.2,1.1-0.5c0.5-0.6,0.4-1.5-0.2-2l-9.8-8.1l-9.8,8.1c-0.6,0.5-0.7,1.4-0.2,2
	s1.4,0.7,2,0.2l6.5-5.4v5.2l-8.3,6.9c-0.6,0.5-0.7,1.4-0.2,2c0.5,0.6,1.4,0.7,2,0.2l6.5-5.4v12.3l-8.3-0.6l-15.6,6.2v-13.8l7.8,6.4
	c0.3,0.2,0.6,0.3,0.9,0.3c0.4,0,0.8-0.2,1.1-0.5c0.5-0.6,0.4-1.5-0.2-1.9l-9.6-7.9v-5.5l7.8,6.4c0.3,0.2,0.6,0.3,0.9,0.3
	c0.4,0,0.8-0.2,1.1-0.5c0.5-0.6,0.4-1.5-0.2-1.9l-9.6-7.9v-6.3l7.8,6.4c0.3,0.2,0.6,0.3,0.9,0.3c0.4,0,0.8-0.2,1.1-0.5
	c0.5-0.6,0.4-1.5-0.2-2l-11-9.1l-10.9,9c-0.6,0.5-0.7,1.4-0.2,1.9c0.5,0.6,1.4,0.7,2,0.2l7.7-6.4v6.3l-9.5,7.9
	c-0.6,0.5-0.7,1.4-0.2,2c0.5,0.6,1.4,0.7,2,0.2l7.7-6.4v5.5l-9.5,7.9c-0.6,0.5-0.7,1.4-0.2,2s1.4,0.7,2,0.2l7.7-6.4v14.2h-1.3
	c0.5,0.3,1,0.5,1.6,0.7l-47,19.4l-3.2-0.4v-16l7.8,6.4c0.3,0.2,0.6,0.3,0.9,0.3c0.4,0,0.8-0.2,1.1-0.5c0.5-0.6,0.4-1.5-0.2-2
	l-9.6-7.9V163l7.8,6.4c0.3,0.2,0.6,0.3,0.9,0.3c0.4,0,0.8-0.2,1.1-0.5c0.5-0.6,0.4-1.5-0.2-1.9l-9.6-7.9v-6.3l7.8,6.4
	c0.3,0.2,0.6,0.3,0.9,0.3c0.4,0,0.8-0.2,1.1-0.5c0.5-0.6,0.4-1.5-0.2-1.9l-11-9.1l-10.9,9c-0.6,0.5-0.7,1.4-0.2,1.9
	c0.5,0.6,1.4,0.7,2,0.2l7.7-6.4v6.3l-9.5,7.9c-0.6,0.5-0.7,1.4-0.2,1.9c0.5,0.6,1.4,0.7,2,0.2l7.7-6.4v5.5l-9.5,7.9
	c-0.6,0.5-0.7,1.4-0.2,2c0.5,0.6,1.4,0.7,2,0.2l7.7-6.4v15.6l-8.5-1.1l-14,1.4v-13.9l6.6,5.5c0.3,0.2,0.6,0.3,0.9,0.3
	c0.4,0,0.8-0.2,1.1-0.5c0.5-0.6,0.4-1.5-0.2-2l-8.4-7v-5.2l6.6,5.5c0.3,0.2,0.6,0.3,0.9,0.3c0.4,0,0.8-0.2,1.1-0.5
	c0.5-0.6,0.4-1.5-0.2-1.9l-9.8-8.1l-9.8,8.1c-0.6,0.5-0.7,1.4-0.2,2c0.5,0.6,1.4,0.7,2,0.2l6.5-5.4v5.2l-8.3,6.9
	c-0.6,0.5-0.7,1.4-0.2,2s1.4,0.7,2,0.2l6.5-5.4v14.1l-11.6,1.1l-40.2,39.9l-21.8,18.9l-31.7,11.5l-25.2,15.8l-0.3,0.1v-12.6l7.8,6.4
	c0.3,0.2,0.6,0.3,0.9,0.3c0.4,0,0.8-0.2,1.1-0.5c0.5-0.6,0.4-1.4-0.2-1.9l-9.6-7.9V254l7.8,6.4c0.3,0.2,0.6,0.3,0.9,0.3
	c0.4,0,0.8-0.2,1.1-0.5c0.5-0.6,0.4-1.5-0.2-2l-9.6-7.9V244l7.8,6.4c0.3,0.2,0.6,0.3,0.9,0.3c0.4,0,0.8-0.2,1.1-0.5
	c0.5-0.6,0.4-1.5-0.2-1.9l-11.2-9.1l-10.9,9c-0.6,0.5-0.7,1.4-0.2,2c0.5,0.6,1.4,0.7,2,0.2l7.7-6.4v6.3l-9.5,7.9
	c-0.6,0.5-0.7,1.4-0.2,1.9c0.5,0.6,1.4,0.7,2,0.2l7.7-6.4v5.5l-9.5,7.9c-0.6,0.5-0.7,1.4-0.2,2c0.5,0.6,1.4,0.7,2,0.2l7.7-6.4v13.4
	l-25.3,6.8v-12.5l6.8,5.6c0.3,0.2,0.6,0.3,0.9,0.3c0.4,0,0.8-0.2,1.1-0.5c0.5-0.6,0.4-1.5-0.2-2l-8.6-7.1v-4.9l6.8,5.6
	c0.3,0.2,0.6,0.3,0.9,0.3c0.4,0,0.8-0.2,1.1-0.5c0.5-0.6,0.4-1.5-0.2-2l-8.6-7.1v-4.6l6.8,5.6c0.3,0.2,0.6,0.3,0.9,0.3
	c0.4,0,0.8-0.2,1.1-0.5c0.5-0.6,0.4-1.5-0.2-2l-8.6-7.1v-5.4l6.8,5.6c0.3,0.2,0.6,0.3,0.9,0.3c0.4,0,0.8-0.2,1.1-0.5
	c0.5-0.6,0.4-1.5-0.2-1.9l-10-8.3l-9.9,8.3c-0.6,0.5-0.7,1.4-0.2,2c0.5,0.6,1.4,0.7,2,0.2l6.7-5.6v5.4l-8.5,7.1
	c-0.6,0.5-0.7,1.4-0.2,2s1.4,0.7,2,0.2l6.7-5.6v4.6l-8.5,7.1c-0.6,0.5-0.7,1.4-0.2,2c0.5,0.6,1.4,0.7,2,0.2l6.7-5.6v4.9l-8.5,7.1
	c-0.6,0.5-0.7,1.4-0.2,1.9c0.5,0.6,1.4,0.7,2,0.2l6.7-5.6V284l-2.8,0.8l-22-3.9c0-0.1,0.1-0.2,0.1-0.3s0-0.2,0-0.3h-1.2v-19.2
	l7.7,6.4c0.3,0.2,0.6,0.3,0.9,0.3c0.4,0,0.8-0.2,1.1-0.5c0.5-0.6,0.4-1.5-0.2-2l-9.6-7.9v-5.5l7.7,6.4c0.3,0.2,0.6,0.3,0.9,0.3
	c0.4,0,0.8-0.2,1.1-0.5c0.5-0.6,0.4-1.5-0.2-1.9l-9.6-7.9V242l7.7,6.4c0.3,0.2,0.6,0.3,0.9,0.3c0.4,0,0.8-0.2,1.1-0.5
	c0.5-0.6,0.4-1.5-0.2-2l-11-9.1l-10.9,9c-0.6,0.5-0.7,1.4-0.2,1.9c0.5,0.6,1.4,0.7,2,0.2l7.7-6.4v6.3l-9.5,7.9
	c-0.6,0.5-0.7,1.4-0.2,1.9c0.5,0.6,1.4,0.7,2,0.2l7.7-6.4v5.5l-9.5,7.9c-0.6,0.5-0.7,1.4-0.2,2s1.4,0.7,2,0.2l7.7-6.4v19.2h-0.1
	l-44-7.7l-25.3,4.4l-7.9-5.1l-3.8,0.7V261l7.8,6.4c0.3,0.2,0.6,0.3,0.9,0.3c0.4,0,0.8-0.2,1.1-0.5c0.5-0.6,0.4-1.5-0.2-2l-9.6-7.9
	v-5.5l7.8,6.4c0.3,0.2,0.6,0.3,0.9,0.3c0.4,0,0.8-0.2,1.1-0.5c0.5-0.6,0.4-1.5-0.2-1.9l-9.6-7.9v-6.3l7.8,6.4
	c0.3,0.2,0.6,0.3,0.9,0.3c0.4,0,0.8-0.2,1.1-0.5c0.5-0.6,0.4-1.5-0.2-1.9l-11-9.1l-10.9,9c-0.6,0.5-0.7,1.4-0.2,1.9
	c0.5,0.6,1.4,0.7,2,0.2l7.7-6.4v6.3l-9.5,7.9c-0.6,0.5-0.7,1.4-0.2,1.9c0.5,0.6,1.4,0.7,2,0.2l7.7-6.4v5.5l-9.5,7.9
	c-0.6,0.5-0.7,1.4-0.2,2s1.4,0.7,2,0.2l7.7-6.4v11.9l-18,3.1l-7.6,0.8v-12.8l6.6,5.5c0.3,0.2,0.6,0.3,0.9,0.3c0.4,0,0.8-0.2,1.1-0.5
	c0.5-0.6,0.4-1.5-0.2-2l-8.4-7V255l6.6,5.5c0.3,0.2,0.6,0.3,0.9,0.3c0.4,0,0.8-0.2,1.1-0.5c0.5-0.6,0.4-1.5-0.2-2l-9.8-8.1l-9.8,8.1
	c-0.6,0.5-0.7,1.4-0.2,1.9c0.5,0.6,1.4,0.7,2,0.2l6.5-5.4v5.2l-8.3,6.9c-0.6,0.5-0.7,1.4-0.2,2s1.4,0.7,2,0.2l6.5-5.4V277l-9.9,1
	l-8.8,4.2l-2.9-1v-0.1h-0.2l-2-0.7v-13.5l7.8,6.4c0.3,0.2,0.6,0.3,0.9,0.3c0.4,0,0.8-0.2,1.1-0.5c0.5-0.6,0.4-1.5-0.2-2l-9.6-7.9
	v-5.5l7.8,6.4c0.3,0.2,0.6,0.3,0.9,0.3c0.4,0,0.8-0.2,1.1-0.5c0.5-0.6,0.4-1.5-0.2-2l-9.6-7.9v-6.3l7.8,6.4c0.3,0.2,0.6,0.3,0.9,0.3
	c0.4,0,0.8-0.2,1.1-0.5c0.5-0.6,0.4-1.5-0.2-1.9l-11-9.1l-10.9,9c-0.6,0.5-0.7,1.4-0.2,2c0.5,0.6,1.4,0.7,2,0.2l7.7-6.4v6.3
	l-9.5,7.9c-0.6,0.5-0.7,1.4-0.2,2s1.4,0.7,2,0.2l7.7-6.4v5.5l-9.5,7.9c-0.6,0.5-0.7,1.4-0.2,1.9c0.5,0.6,1.4,0.7,2,0.2l7.7-6.4v12.5
	l-9-3.1l-23.4,2.3l-32.1,24.7l-0.4-0.6l-13.2,1.3l-32.2,32.6v-18.9l6.6,5.5c0.3,0.2,0.6,0.3,0.9,0.3c0.4,0,0.8-0.2,1.1-0.5
	c0.5-0.6,0.4-1.5-0.2-1.9l-8.4-7v-5.2l6.6,5.5c0.3,0.2,0.6,0.3,0.9,0.3c0.4,0,0.8-0.2,1.1-0.5c0.5-0.6,0.4-1.5-0.2-1.9l-9.8-8.1
	l-9.8,8.1c-0.6,0.5-0.7,1.4-0.2,2c0.5,0.6,1.4,0.7,2,0.2l6.5-5.4v5.2l-8.4,6.9c-0.6,0.5-0.7,1.4-0.2,2s1.4,0.7,2,0.2l6.5-5.4v21.7
	l-3.3,3.4l-20.6,6.5v-12.6l7.7,6.4c0.3,0.2,0.6,0.3,0.9,0.3c0.4,0,0.8-0.2,1.1-0.5c0.5-0.6,0.4-1.5-0.2-1.9l-9.5-7.9v-5.5l7.7,6.4
	c0.3,0.2,0.6,0.3,0.9,0.3c0.4,0,0.8-0.2,1.1-0.5c0.5-0.6,0.4-1.5-0.2-2l-9.5-7.9v-6.3l7.7,6.4c0.3,0.2,0.6,0.3,0.9,0.3
	c0.4,0,0.8-0.2,1.1-0.5c0.5-0.6,0.4-1.5-0.2-1.9l-11-9.1l-10.9,9c-0.6,0.5-0.7,1.4-0.2,2s1.4,0.7,2,0.2l7.7-6.4v6.3l-9.5,7.9
	c-0.6,0.5-0.7,1.4-0.2,2s1.4,0.7,2,0.2l7.7-6.4v5.5l-9.5,7.9c-0.6,0.5-0.7,1.4-0.2,2c0.5,0.6,1.4,0.7,2,0.2l7.7-6.4v13.5l-7.5,2.4
	l-18.1,7.8v-12l6.8,5.6c0.3,0.2,0.6,0.3,0.9,0.3c0.4,0,0.8-0.2,1.1-0.5c0.5-0.6,0.4-1.5-0.2-1.9l-8.6-7.1v-4.9l6.8,5.6
	c0.3,0.2,0.6,0.3,0.9,0.3c0.4,0,0.8-0.2,1.1-0.5c0.5-0.6,0.4-1.5-0.2-1.9l-8.6-7.1V332l6.8,5.6c0.3,0.2,0.6,0.3,0.9,0.3
	c0.4,0,0.8-0.2,1.1-0.5c0.5-0.6,0.4-1.5-0.2-1.9l-8.6-7.1V323l6.8,5.6c0.3,0.2,0.6,0.3,0.9,0.3c0.4,0,0.8-0.2,1.1-0.5
	c0.5-0.6,0.4-1.5-0.2-1.9l-10-8.3l-9.9,8.3c-0.6,0.5-0.7,1.4-0.2,1.9c0.5,0.6,1.4,0.7,2,0.2l6.7-5.6v5.4l-8.5,7.1
	c-0.6,0.5-0.7,1.4-0.2,2s1.4,0.7,2,0.2l6.7-5.6v4.6l-8.5,7.1c-0.6,0.5-0.7,1.4-0.2,1.9s1.4,0.7,2,0.2l6.7-5.6v4.9l-8.5,7.1
	c-0.6,0.5-0.7,1.4-0.2,1.9c0.5,0.6,1.4,0.7,2,0.2l6.7-5.6V362l-36.9,6.3l-16-5.3v-13l7.8,6.4c0.3,0.2,0.6,0.3,0.9,0.3
	c0.4,0,0.8-0.2,1.1-0.5c0.5-0.6,0.4-1.5-0.2-1.9l-9.6-7.9v-5.5l7.8,6.4c0.3,0.2,0.6,0.3,0.9,0.3c0.4,0,0.8-0.2,1.1-0.5
	c0.5-0.6,0.4-1.5-0.2-2l-9.6-7.9v-6.3l7.8,6.4c0.3,0.2,0.6,0.3,0.9,0.3c0.4,0,0.8-0.2,1.1-0.5c0.5-0.6,0.4-1.5-0.2-1.9l-11-9.1
	l-10.9,9c-0.6,0.5-0.7,1.4-0.2,2s1.4,0.7,2,0.2l7.7-6.4v6.3l-9.5,7.9c-0.6,0.5-0.7,1.4-0.2,2s1.4,0.7,2,0.2l7.7-6.4v5.5l-9.5,7.9
	c-0.6,0.5-0.7,1.4-0.2,1.9c0.5,0.6,1.4,0.7,2,0.2l7.7-6.4v12.1l-14.1-4.7l-11.5,2.4V346l6.6,5.5c0.3,0.2,0.6,0.3,0.9,0.3
	c0.4,0,0.8-0.2,1.1-0.5c0.5-0.6,0.4-1.5-0.2-1.9l-8.4-7v-5.2l6.6,5.5c0.3,0.2,0.6,0.3,0.9,0.3c0.4,0,0.8-0.2,1.1-0.5
	c0.5-0.6,0.4-1.5-0.2-1.9l-9.8-8.1l-9.8,8.1c-0.6,0.5-0.7,1.4-0.2,1.9c0.5,0.6,1.4,0.7,2,0.2l6.5-5.4v5.2l-8.3,6.9
	c-0.6,0.5-0.7,1.4-0.2,1.9c0.5,0.6,1.4,0.7,2,0.2l6.5-5.4v14.4l-7.9,1.7l-16-3.1v-11.9l7.8,6.4c0.3,0.2,0.6,0.3,0.9,0.3
	c0.4,0,0.8-0.2,1.1-0.5c0.5-0.6,0.4-1.5-0.2-2l-9.6-7.9V338l7.8,6.4c0.3,0.2,0.6,0.3,0.9,0.3c0.4,0,0.8-0.2,1.1-0.5
	c0.5-0.6,0.4-1.5-0.2-2l-9.6-7.9V328l7.8,6.4c0.3,0.2,0.6,0.3,0.9,0.3c0.4,0,0.8-0.2,1.1-0.5c0.5-0.6,0.4-1.5-0.2-2l-11-9.1l-10.9,9
	c-0.6,0.5-0.7,1.4-0.2,2s1.4,0.7,2,0.2l7.7-6.4v6.3l-9.5,7.9c-0.6,0.5-0.7,1.4-0.2,1.9c0.5,0.6,1.4,0.7,2,0.2l7.7-6.4v5.5l-9.5,7.9
	c-0.6,0.5-0.7,1.4-0.2,2c0.5,0.6,1.4,0.7,2,0.2l7.7-6.4v11.4l-40.9-8l-14.1,7.2V342l7.7,6.4c0.3,0.2,0.6,0.3,0.9,0.3
	c0.4,0,0.8-0.2,1.1-0.5c0.5-0.6,0.4-1.5-0.2-2l-9.6-7.9v-5.5l7.7,6.4c0.3,0.2,0.6,0.3,0.9,0.3c0.4,0,0.8-0.2,1.1-0.5
	c0.5-0.6,0.4-1.5-0.2-2l-9.6-7.9v-6.3l7.7,6.4c0.3,0.2,0.6,0.3,0.9,0.3c0.4,0,0.8-0.2,1.1-0.5c0.5-0.6,0.4-1.5-0.2-2l-11-9.1
	l-10.9,9c-0.6,0.5-0.7,1.4-0.2,2s1.4,0.7,2,0.2l7.7-6.4v6.3l-9.5,7.9c-0.6,0.5-0.7,1.4-0.2,1.9c0.5,0.6,1.4,0.7,2,0.2l7.7-6.4v5.5
	l-9.5,7.9c-0.6,0.5-0.7,1.4-0.2,2s1.4,0.7,2,0.2l7.7-6.4v17.1l-9.5,4.8l-16.1,5.7v-11.6l6.6,5.5c0.3,0.2,0.6,0.3,0.9,0.3
	c0.4,0,0.8-0.2,1.1-0.5c0.5-0.6,0.4-1.5-0.2-2l-8.4-7v-5.2l6.6,5.5c0.3,0.2,0.6,0.3,0.9,0.3c0.4,0,0.8-0.2,1.1-0.5
	c0.5-0.6,0.4-1.5-0.2-2l-9.8-8.1l-9.8,8.1c-0.6,0.5-0.7,1.4-0.2,1.9c0.5,0.6,1.4,0.7,2,0.2l6.5-5.4v5.2l-8.3,6.9
	c-0.6,0.5-0.7,1.4-0.2,2s1.4,0.7,2,0.2l6.5-5.4v12.6l-63.4,22.4l-47.7,7v-12l6.6,5.5c0.3,0.2,0.6,0.3,0.9,0.3c0.4,0,0.8-0.2,1.1-0.5
	c0.5-0.6,0.4-1.5-0.2-2l-8.4-7v-5.2l6.6,5.5c0.3,0.2,0.6,0.3,0.9,0.3c0.4,0,0.8-0.2,1.1-0.5c0.5-0.6,0.4-1.5-0.2-2l-9.8-8.1
	l-9.8,8.1c-0.6,0.5-0.7,1.4-0.2,1.9c0.5,0.6,1.4,0.7,2,0.2l6.5-5.4v5.2l-8.3,6.9c-0.6,0.5-0.7,1.4-0.2,2s1.4,0.7,2,0.2l6.5-5.4v12.4
	l-18.4,2.7l-5.5-0.7v-13.4l7.8,6.4c0.3,0.2,0.6,0.3,0.9,0.3c0.4,0,0.8-0.2,1.1-0.5c0.5-0.6,0.4-1.5-0.2-2l-9.6-7.9v-5.5l7.8,6.4
	c0.3,0.2,0.6,0.3,0.9,0.3c0.4,0,0.8-0.2,1.1-0.5c0.5-0.6,0.4-1.5-0.2-1.9l-9.6-7.9v-6.3l7.8,6.4c0.3,0.2,0.6,0.3,0.9,0.3
	c0.4,0,0.8-0.2,1.1-0.5c0.5-0.6,0.4-1.5-0.2-2l-11-9.1l-10.9,9c-0.6,0.5-0.7,1.4-0.2,1.9c0.5,0.6,1.4,0.7,2,0.2l7.7-6.4v6.3
	l-9.5,7.9c-0.6,0.5-0.7,1.4-0.2,2c0.5,0.6,1.4,0.7,2,0.2l7.7-6.4v5.5l-9.5,7.9c-0.6,0.5-0.7,1.4-0.2,1.9c0.5,0.6,1.4,0.7,2,0.2
	l7.7-6.4v13l-25.3-3.3v-14.7l6.8,5.6c0.3,0.2,0.6,0.3,0.9,0.3c0.4,0,0.8-0.2,1.1-0.5c0.5-0.6,0.4-1.5-0.2-1.9l-8.6-7.1v-4.9l6.8,5.6
	c0.3,0.2,0.6,0.3,0.9,0.3c0.4,0,0.8-0.2,1.1-0.5c0.5-0.6,0.4-1.5-0.2-1.9l-8.6-7.1v-4.6l6.8,5.6c0.3,0.2,0.6,0.3,0.9,0.3
	c0.4,0,0.8-0.2,1.1-0.5c0.5-0.6,0.4-1.5-0.2-2l-8.6-7.1v-5.4l6.8,5.6c0.3,0.2,0.6,0.3,0.9,0.3c0.4,0,0.8-0.2,1.1-0.5
	c0.5-0.6,0.4-1.5-0.2-2l-10-8.3l-9.9,8.3c-0.6,0.5-0.7,1.4-0.2,1.9c0.5,0.6,1.4,0.7,2,0.2l6.7-5.6v5.4l-8.5,7.1
	c-0.6,0.5-0.7,1.4-0.2,2c0.5,0.6,1.4,0.7,2,0.2l6.7-5.6v4.6l-8.5,7.1c-0.6,0.5-0.7,1.4-0.2,2s1.4,0.7,2,0.2l6.7-5.6v4.9l-8.5,7.1
	c-0.6,0.5-0.7,1.4-0.2,1.9c0.5,0.6,1.4,0.7,2,0.2l6.7-5.6v14.5l-23.7-3.3c0,0-75.8,5.2-78.4,5.2s-47.5-14.3-47.5-14.3l-22.7-16.5
	l-35.6,11.4l-10.7,2.4v-13.7l7.7,6.4c0.3,0.2,0.6,0.3,0.9,0.3c0.4,0,0.8-0.2,1.1-0.5c0.5-0.6,0.4-1.5-0.2-2l-9.6-7.9v-5.5l7.7,6.4
	c0.3,0.2,0.6,0.3,0.9,0.3c0.4,0,0.8-0.2,1.1-0.5c0.5-0.6,0.4-1.5-0.2-1.9l-9.6-7.9v-6.3l7.7,6.4c0.3,0.2,0.6,0.3,0.9,0.3
	c0.4,0,0.8-0.2,1.1-0.5c0.5-0.6,0.4-1.5-0.2-2l-11-9.1l-10.9,9c-0.6,0.5-0.7,1.4-0.2,1.9c0.5,0.6,1.4,0.7,2,0.2l7.7-6.4v6.3
	l-9.5,7.9c-0.6,0.5-0.7,1.4-0.2,1.9c0.5,0.6,1.4,0.7,2,0.2l7.7-6.4v5.5l-9.5,7.9c-0.6,0.5-0.7,1.4-0.2,1.9c0.5,0.6,1.4,0.7,2,0.2
	l7.7-6.4v14.7l-39.9,8.8l-24.3-13.9c0,0-20.7-1.5-40.8-2.8v-9.5l6.6,5.5c0.3,0.2,0.6,0.3,0.9,0.3c0.4,0,0.8-0.2,1.1-0.5
	c0.5-0.6,0.4-1.5-0.2-2l-8.4-7v-5.2l6.6,5.5c0.3,0.2,0.6,0.3,0.9,0.3c0.4,0,0.8-0.2,1.1-0.5c0.5-0.6,0.4-1.5-0.2-2l-9.8-8.1
	l-9.8,8.1c-0.6,0.5-0.7,1.4-0.2,1.9c0.5,0.6,1.4,0.7,2,0.2l6.5-5.4v5.2l-8.3,6.9c-0.6,0.5-0.7,1.4-0.2,2s1.4,0.7,2,0.2l6.5-5.4v9.3
	c-10-0.6-19.6-1.1-26.1-1.3v-11.7l7.7,6.4c0.3,0.2,0.6,0.3,0.9,0.3c0.4,0,0.8-0.2,1.1-0.5c0.5-0.6,0.4-1.5-0.2-2l-9.6-7.9v-5.5
	l7.7,6.4c0.3,0.2,0.6,0.3,0.9,0.3c0.4,0,0.8-0.2,1.1-0.5c0.5-0.6,0.4-1.5-0.2-1.9l-9.6-7.9v-6.3l7.7,6.4c0.3,0.2,0.6,0.3,0.9,0.3
	c0.4,0,0.8-0.2,1.1-0.5c0.5-0.6,0.4-1.5-0.2-2l-11-9.1l-10.9,9c-0.6,0.5-0.7,1.4-0.2,1.9c0.5,0.6,1.4,0.7,2,0.2l7.7-6.4v6.3
	l-9.5,7.9c-0.6,0.5-0.7,1.4-0.2,1.9c0.5,0.6,1.4,0.7,2,0.2l7.7-6.4v5.5l-9.5,7.9c-0.6,0.5-0.7,1.4-0.2,1.9c0.5,0.6,1.4,0.7,2,0.2
	l7.7-6.4v11.9c-2.9,0-4.8,0-5.1,0.3c-2.1,1.5-52.6,16.5-52.6,16.5l-19.2,4.8v-9.1l6.6,5.5c0.3,0.2,0.6,0.3,0.9,0.3
	c0.4,0,0.8-0.2,1.1-0.5c0.5-0.6,0.4-1.5-0.2-2l-8.4-7v-5.2l6.6,5.5c0.3,0.2,0.6,0.3,0.9,0.3c0.4,0,0.8-0.2,1.1-0.5
	c0.5-0.6,0.4-1.5-0.2-2l-9.8-8.1l-9.8,8.1c-0.6,0.5-0.7,1.4-0.2,1.9c0.5,0.6,1.4,0.7,2,0.2l6.5-5.4v5.2l-8.3,6.9
	c-0.6,0.5-0.7,1.4-0.2,2s1.4,0.7,2,0.2l6.5-5.4v9.8l-28.1,7v-13.8l7.7,6.4c0.3,0.2,0.6,0.3,0.9,0.3c0.4,0,0.8-0.2,1.1-0.5
	c0.5-0.6,0.4-1.5-0.2-2l-9.6-7.9v-5.5l7.7,6.4c0.3,0.2,0.6,0.3,0.9,0.3c0.4,0,0.8-0.2,1.1-0.5c0.5-0.6,0.4-1.5-0.2-1.9l-9.6-7.9
	v-6.3l7.7,6.4c0.3,0.2,0.6,0.3,0.9,0.3c0.4,0,0.8-0.2,1.1-0.5c0.5-0.6,0.4-1.5-0.2-2l-11-9.1l-10.9,9c-0.6,0.5-0.7,1.4-0.2,1.9
	c0.5,0.6,1.4,0.7,2,0.2l7.7-6.4v6.3l-9.5,7.9c-0.6,0.5-0.7,1.4-0.2,1.9c0.5,0.6,1.4,0.7,2,0.2l7.7-6.4v5.5l-9.5,7.9
	c-0.6,0.5-0.7,1.4-0.2,1.9c0.5,0.6,1.4,0.7,2,0.2l7.7-6.4v14.9l-12.6,3.2L0,401.2v19.4h520h1400V16.2L1913,14.5z"/>
</svg>
